<svg viewBox="0 0 22 22" xmlns="http://www.w3.org/2000/svg">
    <path fill-rule="evenodd" clip-rule="evenodd"
          d="M9.8887 2C5.53189 2 2 5.53189 2 9.8887C2 14.2455 5.53189 17.7774 9.8887 17.7774C14.2455 17.7774 17.7774 14.2455 17.7774 9.8887C17.7774 5.53189 14.2455 2 9.8887 2ZM0 9.8887C0 4.42732 4.42732 0 9.8887 0C15.3501 0 19.7774 4.42732 19.7774 9.8887C19.7774 15.3501 15.3501 19.7774 9.8887 19.7774C4.42732 19.7774 0 15.3501 0 9.8887Z"/>
    <path fill-rule="evenodd" clip-rule="evenodd"
          d="M15.4609 15.4594C15.8514 15.0689 16.4846 15.0689 16.8751 15.4594L21.7083 20.2926C22.0988 20.6832 22.0988 21.3163 21.7083 21.7068C21.3178 22.0974 20.6846 22.0974 20.2941 21.7068L15.4609 16.8736C15.0703 16.4831 15.0703 15.8499 15.4609 15.4594Z"/>
</svg>
