<svg viewBox="0 0 24 20" xmlns="http://www.w3.org/2000/svg">
    <path fill-rule="evenodd" clip-rule="evenodd"
          d="M0.671875 1.06326C0.671875 0.510978 1.11959 0.0632629 1.67188 0.0632629H22.0862C22.6385 0.0632629 23.0862 0.510978 23.0862 1.06326C23.0862 1.61555 22.6385 2.06326 22.0862 2.06326H1.67188C1.11959 2.06326 0.671875 1.61555 0.671875 1.06326Z"/>
    <path fill-rule="evenodd" clip-rule="evenodd"
          d="M0.671875 9.96411C0.671875 9.41183 1.11959 8.96411 1.67188 8.96411H22.0862C22.6385 8.96411 23.0862 9.41183 23.0862 9.96411C23.0862 10.5164 22.6385 10.9641 22.0862 10.9641H1.67188C1.11959 10.9641 0.671875 10.5164 0.671875 9.96411Z"/>
    <path fill-rule="evenodd" clip-rule="evenodd"
          d="M0.671875 18.865C0.671875 18.3127 1.11959 17.865 1.67188 17.865H16.8561C17.4084 17.865 17.8561 18.3127 17.8561 18.865C17.8561 19.4172 17.4084 19.865 16.8561 19.865H1.67188C1.11959 19.865 0.671875 19.4172 0.671875 18.865Z"/>
</svg>
