<svg viewBox="0 0 32 19" xmlns="http://www.w3.org/2000/svg">
    <path fill-rule="evenodd" clip-rule="evenodd"
          d="M3.27737 9.5C3.43225 9.68679 3.6233 9.91112 3.84785 10.1637C4.53266 10.934 5.52292 11.9601 6.74344 12.9838C9.2136 15.0557 12.4865 17 16.0003 17C19.5141 17 22.787 15.0557 25.2572 12.9838C26.4777 11.9601 27.4679 10.934 28.1528 10.1637C28.3773 9.91112 28.5684 9.68679 28.7232 9.5C28.5684 9.31321 28.3773 9.08888 28.1528 8.83629C27.4679 8.066 26.4777 7.0399 25.2572 6.01617C22.787 3.9443 19.5141 2 16.0003 2C12.4865 2 9.2136 3.9443 6.74344 6.01617C5.52292 7.0399 4.53266 8.066 3.84785 8.83629C3.6233 9.08888 3.43225 9.31321 3.27737 9.5ZM30.0003 9.5C30.8051 8.9065 30.8049 8.90624 30.8047 8.90594L30.8026 8.90309L30.7978 8.8966L30.7813 8.87455C30.7673 8.85589 30.7472 8.82939 30.7212 8.79558C30.6693 8.72795 30.5938 8.63101 30.4958 8.50894C30.3 8.26488 30.0141 7.91984 29.6475 7.50746C28.9154 6.684 27.8554 5.5851 26.5424 4.48383C23.9456 2.3057 20.2184 0 16.0003 0C11.7822 0 8.05502 2.3057 5.45817 4.48383C4.14519 5.5851 3.0852 6.684 2.35313 7.50746C1.98651 7.91984 1.7006 8.26488 1.50477 8.50894C1.40682 8.63101 1.3313 8.72795 1.27938 8.79558C1.25342 8.82939 1.23335 8.85589 1.21932 8.87455L1.20281 8.8966L1.19799 8.90309L1.19644 8.90519C1.19622 8.90548 1.19547 8.9065 2.0003 9.5L1.19547 8.9065L0.757812 9.5L1.19547 10.0935L2.0003 9.5C1.19547 10.0935 1.19525 10.0932 1.19547 10.0935L1.19799 10.0969L1.20281 10.1034L1.21932 10.1254C1.23335 10.1441 1.25342 10.1706 1.27938 10.2044C1.3313 10.272 1.40682 10.369 1.50477 10.4911C1.7006 10.7351 1.98651 11.0802 2.35313 11.4925C3.0852 12.316 4.14519 13.4149 5.45817 14.5162C8.05502 16.6943 11.7822 19 16.0003 19C20.2184 19 23.9456 16.6943 26.5424 14.5162C27.8554 13.4149 28.9154 12.316 29.6475 11.4925C30.0141 11.0802 30.3 10.7351 30.4958 10.4911C30.5938 10.369 30.6693 10.272 30.7212 10.2044C30.7472 10.1706 30.7673 10.1441 30.7813 10.1254L30.7978 10.1034L30.8026 10.0969L30.8042 10.0948C30.8044 10.0945 30.8051 10.0935 30.0003 9.5ZM30.0003 9.5L30.8051 10.0935L31.2428 9.5L30.8047 8.90594L30.0003 9.5Z"/>
    <path fill-rule="evenodd" clip-rule="evenodd"
          d="M16 2C12.6863 2 10 4.68629 10 8C10 11.3137 12.6863 14 16 14C19.3137 14 22 11.3137 22 8C22 4.68629 19.3137 2 16 2ZM8 8C8 3.58172 11.5817 0 16 0C20.4183 0 24 3.58172 24 8C24 12.4183 20.4183 16 16 16C11.5817 16 8 12.4183 8 8Z"/>
</svg>
