<svg xmlns="http://www.w3.org/2000/svg" xmlns:xlink="http://www.w3.org/1999/xlink"><defs><symbol viewBox="0 0 24 20" id="i-burger">
    <path fill-rule="evenodd" clip-rule="evenodd" d="M0.671875 1.06326C0.671875 0.510978 1.11959 0.0632629 1.67188 0.0632629H22.0862C22.6385 0.0632629 23.0862 0.510978 23.0862 1.06326C23.0862 1.61555 22.6385 2.06326 22.0862 2.06326H1.67188C1.11959 2.06326 0.671875 1.61555 0.671875 1.06326Z" />
    <path fill-rule="evenodd" clip-rule="evenodd" d="M0.671875 9.96411C0.671875 9.41183 1.11959 8.96411 1.67188 8.96411H22.0862C22.6385 8.96411 23.0862 9.41183 23.0862 9.96411C23.0862 10.5164 22.6385 10.9641 22.0862 10.9641H1.67188C1.11959 10.9641 0.671875 10.5164 0.671875 9.96411Z" />
    <path fill-rule="evenodd" clip-rule="evenodd" d="M0.671875 18.865C0.671875 18.3127 1.11959 17.865 1.67188 17.865H16.8561C17.4084 17.865 17.8561 18.3127 17.8561 18.865C17.8561 19.4172 17.4084 19.865 16.8561 19.865H1.67188C1.11959 19.865 0.671875 19.4172 0.671875 18.865Z" />
</symbol><symbol viewBox="0 0 32 19" id="i-eye">
    <path fill-rule="evenodd" clip-rule="evenodd" d="M3.27737 9.5C3.43225 9.68679 3.6233 9.91112 3.84785 10.1637C4.53266 10.934 5.52292 11.9601 6.74344 12.9838C9.2136 15.0557 12.4865 17 16.0003 17C19.5141 17 22.787 15.0557 25.2572 12.9838C26.4777 11.9601 27.4679 10.934 28.1528 10.1637C28.3773 9.91112 28.5684 9.68679 28.7232 9.5C28.5684 9.31321 28.3773 9.08888 28.1528 8.83629C27.4679 8.066 26.4777 7.0399 25.2572 6.01617C22.787 3.9443 19.5141 2 16.0003 2C12.4865 2 9.2136 3.9443 6.74344 6.01617C5.52292 7.0399 4.53266 8.066 3.84785 8.83629C3.6233 9.08888 3.43225 9.31321 3.27737 9.5ZM30.0003 9.5C30.8051 8.9065 30.8049 8.90624 30.8047 8.90594L30.8026 8.90309L30.7978 8.8966L30.7813 8.87455C30.7673 8.85589 30.7472 8.82939 30.7212 8.79558C30.6693 8.72795 30.5938 8.63101 30.4958 8.50894C30.3 8.26488 30.0141 7.91984 29.6475 7.50746C28.9154 6.684 27.8554 5.5851 26.5424 4.48383C23.9456 2.3057 20.2184 0 16.0003 0C11.7822 0 8.05502 2.3057 5.45817 4.48383C4.14519 5.5851 3.0852 6.684 2.35313 7.50746C1.98651 7.91984 1.7006 8.26488 1.50477 8.50894C1.40682 8.63101 1.3313 8.72795 1.27938 8.79558C1.25342 8.82939 1.23335 8.85589 1.21932 8.87455L1.20281 8.8966L1.19799 8.90309L1.19644 8.90519C1.19622 8.90548 1.19547 8.9065 2.0003 9.5L1.19547 8.9065L0.757812 9.5L1.19547 10.0935L2.0003 9.5C1.19547 10.0935 1.19525 10.0932 1.19547 10.0935L1.19799 10.0969L1.20281 10.1034L1.21932 10.1254C1.23335 10.1441 1.25342 10.1706 1.27938 10.2044C1.3313 10.272 1.40682 10.369 1.50477 10.4911C1.7006 10.7351 1.98651 11.0802 2.35313 11.4925C3.0852 12.316 4.14519 13.4149 5.45817 14.5162C8.05502 16.6943 11.7822 19 16.0003 19C20.2184 19 23.9456 16.6943 26.5424 14.5162C27.8554 13.4149 28.9154 12.316 29.6475 11.4925C30.0141 11.0802 30.3 10.7351 30.4958 10.4911C30.5938 10.369 30.6693 10.272 30.7212 10.2044C30.7472 10.1706 30.7673 10.1441 30.7813 10.1254L30.7978 10.1034L30.8026 10.0969L30.8042 10.0948C30.8044 10.0945 30.8051 10.0935 30.0003 9.5ZM30.0003 9.5L30.8051 10.0935L31.2428 9.5L30.8047 8.90594L30.0003 9.5Z" />
    <path fill-rule="evenodd" clip-rule="evenodd" d="M16 2C12.6863 2 10 4.68629 10 8C10 11.3137 12.6863 14 16 14C19.3137 14 22 11.3137 22 8C22 4.68629 19.3137 2 16 2ZM8 8C8 3.58172 11.5817 0 16 0C20.4183 0 24 3.58172 24 8C24 12.4183 20.4183 16 16 16C11.5817 16 8 12.4183 8 8Z" />
</symbol><symbol viewBox="0 0 19 20" id="i-phone">
    <path d="M14.0672 19.3606C15.7152 19.3606 16.8358 18.8897 17.8528 17.788C17.9187 17.7126 17.9846 17.6279 18.0505 17.5526C18.6061 16.931 18.8792 16.2813 18.8792 15.6786C18.8792 14.9723 18.5025 14.332 17.6644 13.7576L14.8582 11.7989C13.973 11.1868 12.9466 11.1397 12.1556 11.9307L11.4587 12.6275C11.2139 12.8724 10.9785 12.8912 10.696 12.6935C10.1875 12.3544 9.22695 11.5069 8.56777 10.8478C7.89917 10.1792 7.22116 9.42581 6.8539 8.85138C6.65615 8.55946 6.67498 8.33345 6.91982 8.08861L7.61666 7.39177C8.40768 6.60075 8.3606 5.57432 7.73908 4.68913L5.74271 1.83582C5.18712 1.02597 4.51852 0.649301 3.81226 0.639884C3.20958 0.630467 2.56923 0.903556 1.94772 1.44973C1.87238 1.51565 1.79705 1.58157 1.72171 1.64749C0.601109 2.67392 0.12085 3.7757 0.12085 5.48956C0.12085 8.26754 1.73113 11.5446 4.86694 14.6616C7.98392 17.7597 11.2233 19.3606 14.0672 19.3606ZM14.0672 17.788C11.6659 17.8256 8.68077 16.1212 6.06288 13.5221C3.42617 10.9231 1.67463 7.82494 1.7123 5.42365C1.73113 4.41604 2.08897 3.53086 2.79524 2.90935C2.87057 2.85284 2.92707 2.80576 3.00241 2.74926C3.26608 2.52325 3.54858 2.40084 3.81226 2.40084C4.08534 2.40084 4.33018 2.51384 4.51852 2.79634L6.27947 5.44248C6.50548 5.76265 6.51489 6.12991 6.1853 6.45008L5.43195 7.19401C4.71627 7.89086 4.78219 8.71013 5.2342 9.35047C5.74271 10.0567 6.69381 11.1397 7.49425 11.9307C8.35118 12.7782 9.51887 13.8235 10.1969 14.3132C10.8372 14.7652 11.6565 14.8311 12.3533 14.1154L13.0973 13.3621C13.408 13.0325 13.7753 13.0419 14.1049 13.2585L16.7039 14.9912C16.9959 15.1795 17.0994 15.4149 17.0994 15.688C17.0994 15.9517 16.977 16.2342 16.751 16.5073C16.6945 16.5732 16.6474 16.6297 16.5909 16.705C15.9694 17.4207 15.0842 17.7786 14.0672 17.788Z" />
</symbol><symbol viewBox="0 0 23 23" id="i-search">
    <g clip-path="url(#i-search_clip0_2_455)">
        <path d="M22.0413 23.0001C21.796 23.0001 21.5506 22.9062 21.3637 22.7193L14.6746 16.0302C14.2999 15.6554 14.2999 15.0498 14.6746 14.6751C15.0493 14.3004 15.655 14.3004 16.0297 14.6751L22.7188 21.3642C23.0935 21.7389 23.0935 22.3446 22.7188 22.7193C22.532 22.9062 22.2866 23.0001 22.0413 23.0001Z" />
        <path d="M9.34375 18.6875C4.19175 18.6875 0 14.4957 0 9.34375C0 4.19175 4.19175 0 9.34375 0C14.4957 0 18.6875 4.19175 18.6875 9.34375C18.6875 14.4957 14.4957 18.6875 9.34375 18.6875ZM9.34375 1.91667C5.24879 1.91667 1.91667 5.24879 1.91667 9.34375C1.91667 13.4387 5.24879 16.7708 9.34375 16.7708C13.4387 16.7708 16.7708 13.4387 16.7708 9.34375C16.7708 5.24879 13.4387 1.91667 9.34375 1.91667Z" />
    </g>
    <defs>
        
    </defs>
</symbol><clipPath id="i-search_clip0_2_455">
            <rect width="23" height="23" />
        </clipPath></defs></svg>